<svg width="10" height="6" viewBox="0 0 10 6" fill="none" xmlns="http://www.w3.org/2000/svg">
<path d="M0.99995 6C0.431951 6 0.135283 5.34267 0.47795 4.918L0.528617 4.862L4.52862 0.862C4.64341 0.747215 4.79615 0.678262 4.95816 0.668074C5.12018 0.657887 5.28035 0.707165 5.40862 0.806666L5.47128 0.862L9.47128 4.862L9.52662 4.92467L9.56262 4.976L9.59862 5.04L9.60995 5.064L9.62795 5.10867L9.64928 5.18067L9.65595 5.216L9.66262 5.256L9.66528 5.294V5.37267L9.66195 5.41133L9.65595 5.45133L9.64928 5.486L9.62795 5.558L9.60995 5.60267L9.56328 5.69067L9.51995 5.75067L9.47128 5.80467L9.40862 5.86L9.35728 5.896L9.29328 5.932L9.26928 5.94333L9.22462 5.96133L9.15262 5.98267L9.11728 5.98933L9.07728 5.996L9.03928 5.99867L0.99995 6Z" fill="#25395C"/>
</svg>
