<svg width="160" height="160" viewBox="0 0 160 160" fill="none" xmlns="http://www.w3.org/2000/svg">
<path d="M64.4531 13.3334L61.1719 30.1563C55.7001 32.2254 50.6407 35.1161 46.1979 38.7631L30.0391 33.1901L14.4922 60.1433L27.4219 71.3802C26.9634 74.1933 26.6667 77.0575 26.6667 80C26.6667 82.9426 26.9634 85.8068 27.4219 88.6198L14.4922 99.8568L30.0391 126.81L46.1979 121.237C50.6407 124.884 55.7001 127.775 61.1719 129.844L64.4531 146.667H95.5469L98.8281 129.844C104.3 127.775 109.359 124.884 113.802 121.237L129.961 126.81L145.508 99.8568L132.578 88.6198C133.037 85.8068 133.333 82.9426 133.333 80C133.333 77.0575 133.037 74.1933 132.578 71.3802L145.508 60.1433L129.961 33.1901L113.802 38.7631C109.359 35.1161 104.3 32.2254 98.8281 30.1563L95.5469 13.3334H64.4531ZM80 53.3334C94.7267 53.3334 106.667 65.2734 106.667 80C106.667 94.7267 94.7267 106.667 80 106.667C65.2733 106.667 53.3333 94.7267 53.3333 80C53.3333 65.2734 65.2733 53.3334 80 53.3334Z" fill="#4E78C2"/>
<path d="M89.3445 73.832C89.3445 75.1471 89.0711 76.2865 88.5242 77.25C87.9773 78.2135 87.2352 79.0013 86.2977 79.6133C85.3732 80.2253 84.3315 80.6745 83.1727 80.9609V81.0781C85.4643 81.3646 87.2026 82.0677 88.3875 83.1875C89.5854 84.3073 90.1844 85.8047 90.1844 87.6797C90.1844 89.3464 89.7742 90.8372 88.9539 92.1523C88.1466 93.4674 86.8966 94.5026 85.2039 95.2578C83.5112 96.013 81.3302 96.3906 78.6609 96.3906C77.0854 96.3906 75.6141 96.2604 74.2469 96C72.8927 95.7526 71.6167 95.3685 70.4187 94.8477V89.7109C71.6427 90.3359 72.9253 90.8112 74.2664 91.1367C75.6076 91.4492 76.8576 91.6055 78.0164 91.6055C80.1779 91.6055 81.6883 91.2344 82.5477 90.4922C83.4201 89.737 83.8562 88.6823 83.8562 87.3281C83.8562 86.5339 83.6544 85.8633 83.2508 85.3164C82.8471 84.7695 82.144 84.3529 81.1414 84.0664C80.1518 83.7799 78.7651 83.6367 76.9812 83.6367H74.8133V79.0078H77.0203C78.7781 79.0078 80.1128 78.8451 81.0242 78.5195C81.9487 78.181 82.5737 77.7253 82.8992 77.1523C83.2378 76.5664 83.407 75.9023 83.407 75.1602C83.407 74.1445 83.0945 73.3503 82.4695 72.7773C81.8445 72.2044 80.8029 71.918 79.3445 71.918C78.4331 71.918 77.5997 72.0352 76.8445 72.2695C76.1023 72.4909 75.4318 72.7643 74.8328 73.0898C74.2339 73.4023 73.7065 73.7083 73.2508 74.0078L70.4578 69.8477C71.5776 69.0404 72.8862 68.3698 74.3836 67.8359C75.894 67.3021 77.6909 67.0352 79.7742 67.0352C82.7169 67.0352 85.0477 67.6276 86.7664 68.8125C88.4852 69.9974 89.3445 71.6706 89.3445 73.832Z" fill="#4E78C2"/>
</svg>
