<svg width="160" height="160" viewBox="0 0 160 160" fill="none" xmlns="http://www.w3.org/2000/svg">
<path d="M64.4531 13.3334L61.1719 30.1563C55.7001 32.2254 50.6407 35.1161 46.1979 38.7631L30.0391 33.1901L14.4922 60.1433L27.4219 71.3802C26.9634 74.1933 26.6667 77.0575 26.6667 80C26.6667 82.9426 26.9634 85.8068 27.4219 88.6198L14.4922 99.8568L30.0391 126.81L46.1979 121.237C50.6407 124.884 55.7001 127.775 61.1719 129.844L64.4531 146.667H95.5469L98.8281 129.844C104.3 127.775 109.359 124.884 113.802 121.237L129.961 126.81L145.508 99.8568L132.578 88.6198C133.037 85.8068 133.333 82.9426 133.333 80C133.333 77.0575 133.037 74.1933 132.578 71.3802L145.508 60.1433L129.961 33.1901L113.802 38.7631C109.359 35.1161 104.3 32.2254 98.8281 30.1563L95.5469 13.3334H64.4531ZM80 53.3334C94.7267 53.3334 106.667 65.2734 106.667 80C106.667 94.7267 94.7267 106.667 80 106.667C65.2733 106.667 53.3333 94.7267 53.3333 80C53.3333 65.2734 65.2733 53.3334 80 53.3334Z" fill="#4E78C2"/>
<path d="M85.4187 96H79.3836V79.4766C79.3836 79.0208 79.3901 78.4609 79.4031 77.7969C79.4161 77.1198 79.4357 76.4297 79.4617 75.7266C79.4878 75.0104 79.5138 74.3659 79.5398 73.793C79.3966 73.9622 79.1036 74.2552 78.6609 74.6719C78.2312 75.0755 77.8276 75.4401 77.45 75.7656L74.1687 78.4023L71.2586 74.7695L80.4578 67.4453H85.4187V96Z" fill="#4E78C2"/>
</svg>
