<svg width="160" height="160" viewBox="0 0 160 160" fill="none" xmlns="http://www.w3.org/2000/svg">
<path d="M64.4531 13.3334L61.1719 30.1563C55.7001 32.2254 50.6407 35.1161 46.1979 38.7631L30.0391 33.1901L14.4922 60.1433L27.4219 71.3802C26.9634 74.1933 26.6667 77.0575 26.6667 80C26.6667 82.9426 26.9634 85.8068 27.4219 88.6198L14.4922 99.8568L30.0391 126.81L46.1979 121.237C50.6407 124.884 55.7001 127.775 61.1719 129.844L64.4531 146.667H95.5469L98.8281 129.844C104.3 127.775 109.359 124.884 113.802 121.237L129.961 126.81L145.508 99.8568L132.578 88.6198C133.037 85.8068 133.333 82.9426 133.333 80C133.333 77.0575 133.037 74.1933 132.578 71.3802L145.508 60.1433L129.961 33.1901L113.802 38.7631C109.359 35.1161 104.3 32.2254 98.8281 30.1563L95.5469 13.3334H64.4531ZM80 53.3334C94.7267 53.3334 106.667 65.2734 106.667 80C106.667 94.7267 94.7267 106.667 80 106.667C65.2733 106.667 53.3333 94.7267 53.3333 80C53.3333 65.2734 65.2733 53.3334 80 53.3334Z" fill="#4E78C2"/>
<path d="M90.4578 96H70.4969V91.8008L77.6648 84.5547C79.1102 83.0703 80.269 81.8333 81.1414 80.8438C82.0268 79.8411 82.6648 78.9297 83.0555 78.1094C83.4591 77.2891 83.6609 76.4102 83.6609 75.4727C83.6609 74.3398 83.3419 73.4935 82.7039 72.9336C82.0789 72.3607 81.2391 72.0742 80.1844 72.0742C79.0776 72.0742 78.0034 72.3281 76.9617 72.8359C75.9201 73.3438 74.8328 74.0664 73.7 75.0039L70.4187 71.1172C71.2391 70.4141 72.1049 69.75 73.0164 69.125C73.9409 68.5 75.0086 67.9987 76.2195 67.6211C77.4435 67.2305 78.9083 67.0352 80.6141 67.0352C82.4891 67.0352 84.0971 67.3737 85.4383 68.0508C86.7924 68.7279 87.8341 69.6523 88.5633 70.8242C89.2924 71.9831 89.657 73.2982 89.657 74.7695C89.657 76.3451 89.3445 77.7839 88.7195 79.0859C88.0945 80.388 87.1831 81.6771 85.9852 82.9531C84.8003 84.2292 83.368 85.6419 81.6883 87.1914L78.0164 90.6484V90.9219H90.4578V96Z" fill="#4E78C2"/>
</svg>
