<svg width="16" height="16" viewBox="0 0 16 16" fill="none" xmlns="http://www.w3.org/2000/svg">
<g clip-path="url(#clip0_325_690)">
<path d="M5.33333 3H4.66667C4.48986 3 4.32029 3.1317 4.19526 3.36612C4.07024 3.60054 4 3.91848 4 4.25V11.75C4 12.0815 4.07024 12.3995 4.19526 12.6339C4.32029 12.8683 4.48986 13 4.66667 13H5.33333C5.51014 13 5.67971 12.8683 5.80474 12.6339C5.92976 12.3995 6 12.0815 6 11.75V4.25C6 3.91848 5.92976 3.60054 5.80474 3.36612C5.67971 3.1317 5.51014 3 5.33333 3Z" fill="#25395C"/>
<path d="M11.3333 3H10.6667C10.4899 3 10.3203 3.1317 10.1953 3.36612C10.0702 3.60054 10 3.91848 10 4.25V11.75C10 12.0815 10.0702 12.3995 10.1953 12.6339C10.3203 12.8683 10.4899 13 10.6667 13H11.3333C11.5101 13 11.6797 12.8683 11.8047 12.6339C11.9298 12.3995 12 12.0815 12 11.75V4.25C12 3.91848 11.9298 3.60054 11.8047 3.36612C11.6797 3.1317 11.5101 3 11.3333 3Z" fill="#25395C"/>
</g>
<defs>
<clipPath id="clip0_325_690">
<rect width="16" height="16" fill="white"/>
</clipPath>
</defs>
</svg>
