<svg width="20" height="20" viewBox="0 0 20 20" fill="none" xmlns="http://www.w3.org/2000/svg">
<g clip-path="url(#clip0_236_263)">
<path d="M9.16699 9.99984C9.16699 10.2209 9.25479 10.4328 9.41107 10.5891C9.56735 10.7454 9.77931 10.8332 10.0003 10.8332C10.2213 10.8332 10.4333 10.7454 10.5896 10.5891C10.7459 10.4328 10.8337 10.2209 10.8337 9.99984C10.8337 9.77882 10.7459 9.56686 10.5896 9.41058C10.4333 9.2543 10.2213 9.1665 10.0003 9.1665C9.77931 9.1665 9.56735 9.2543 9.41107 9.41058C9.25479 9.56686 9.16699 9.77882 9.16699 9.99984Z" stroke="#292929" stroke-width="2" stroke-linecap="round" stroke-linejoin="round"/>
<path d="M9.16699 15.8333C9.16699 16.0543 9.25479 16.2663 9.41107 16.4226C9.56735 16.5789 9.77931 16.6667 10.0003 16.6667C10.2213 16.6667 10.4333 16.5789 10.5896 16.4226C10.7459 16.2663 10.8337 16.0543 10.8337 15.8333C10.8337 15.6123 10.7459 15.4004 10.5896 15.2441C10.4333 15.0878 10.2213 15 10.0003 15C9.77931 15 9.56735 15.0878 9.41107 15.2441C9.25479 15.4004 9.16699 15.6123 9.16699 15.8333Z" stroke="#292929" stroke-width="2" stroke-linecap="round" stroke-linejoin="round"/>
<path d="M9.16699 4.16683C9.16699 4.38784 9.25479 4.5998 9.41107 4.75608C9.56735 4.91237 9.77931 5.00016 10.0003 5.00016C10.2213 5.00016 10.4333 4.91237 10.5896 4.75608C10.7459 4.5998 10.8337 4.38784 10.8337 4.16683C10.8337 3.94582 10.7459 3.73385 10.5896 3.57757C10.4333 3.42129 10.2213 3.3335 10.0003 3.3335C9.77931 3.3335 9.56735 3.42129 9.41107 3.57757C9.25479 3.73385 9.16699 3.94582 9.16699 4.16683Z" stroke="#292929" stroke-width="2" stroke-linecap="round" stroke-linejoin="round"/>
</g>
<defs>
<clipPath id="clip0_236_263">
<rect width="20" height="20" fill="white"/>
</clipPath>
</defs>
</svg>
