<svg width="80" height="80" viewBox="0 0 80 80" fill="none" xmlns="http://www.w3.org/2000/svg">
<g clip-path="url(#clip0_904_214)">
<path d="M23.3333 60C19.1742 60 15.1855 58.4196 12.2446 55.6066C9.30368 52.7936 7.65149 48.9782 7.65149 45C7.65149 41.0218 9.30368 37.2064 12.2446 34.3934C15.1855 31.5804 19.1742 30 23.3333 30C24.3156 25.6239 27.1892 21.7783 31.3219 19.309C33.3683 18.0864 35.6621 17.2385 38.0726 16.8137C40.483 16.3889 42.9628 16.3956 45.3703 16.8333C47.7779 17.2711 50.0661 18.1313 52.1043 19.3649C54.1425 20.5986 55.8907 22.1814 57.2492 24.0231C58.6077 25.8648 59.5498 27.9293 60.0218 30.0987C60.4938 32.268 60.4864 34.4999 60 36.6667H63.3333C66.4275 36.6667 69.395 37.8958 71.5829 40.0838C73.7708 42.2717 75 45.2391 75 48.3333C75 51.4275 73.7708 54.395 71.5829 56.5829C69.395 58.7708 66.4275 60 63.3333 60H60" stroke="#B8B6B6" stroke-width="2" stroke-linecap="round" stroke-linejoin="round"/>
<path d="M30 50L40 40L50 50" stroke="#B8B6B6" stroke-width="2" stroke-linecap="round" stroke-linejoin="round"/>
<path d="M40 40V70" stroke="#B8B6B6" stroke-width="2" stroke-linecap="round" stroke-linejoin="round"/>
</g>
<defs>
<clipPath id="clip0_904_214">
<rect width="80" height="80" fill="white"/>
</clipPath>
</defs>
</svg>
